<svg xmlns="http://www.w3.org/2000/svg" width="22" height="22" fill="none" viewBox="0 0 28 28"><path fill="currentColor" d="M9.11 27c-.18 0-.35-.04-.51-.1-.17-.07-.31-.16-.44-.29-.13-.12-.22-.26-.29-.42s-.11-.33-.11-.5l-.03-2.65c-.39-.06-.78-.16-1.16-.28a6.558 6.558 0 0 1-2.08-1.13c-.31-.24-.6-.51-.86-.81s-.49-.61-.7-.95q-.3-.51-.51-1.05c-.14-.37-.25-.75-.32-1.13-.07-.39-.1-.77-.1-1.16V9.47c0-.43.04-.85.12-1.27.09-.42.22-.83.38-1.23.17-.39.38-.77.62-1.12.24-.36.52-.69.83-.99s.65-.57 1.01-.81c.37-.24.75-.44 1.15-.6.41-.17.83-.29 1.26-.37a6.3 6.3 0 0 1 1.3-.13h4.63a1.195 1.195 0 0 1 .84.34 1.15 1.15 0 0 1 .34.81 1.152 1.152 0 0 1-.72 1.07c-.15.06-.3.09-.46.09H8.67c-.29 0-.57.02-.84.08q-.42.075-.81.24-.39.15-.75.39c-.23.15-.45.33-.65.52-.2.2-.38.41-.54.64-.15.23-.29.47-.4.73-.1.25-.19.52-.24.79-.06.27-.08.54-.08.82v7.06c0 .28.02.55.08.83.06.27.14.54.25.8a4.1 4.1 0 0 0 .95 1.39c.2.2.42.37.66.53s.49.29.76.39c.26.11.54.19.82.25.28.05.56.08.85.08.18 0 .35.03.52.1.16.07.31.16.43.28.13.13.23.27.3.43s.1.33.11.5l.01 1.63 2.98-2.13a4.3 4.3 0 0 1 2.55-.81h3.69c.29 0 .57-.03.84-.08q.42-.075.81-.24t.75-.39c.23-.15.45-.33.65-.52.2-.2.38-.41.54-.64a4 4 0 0 0 .64-1.52c.06-.27.08-.54.08-.82v-3.65a1.12 1.12 0 0 1 .35-.81c.11-.11.24-.2.38-.25a1.204 1.204 0 0 1 .91 0c.14.05.27.14.38.25a1.117 1.117 0 0 1 .35.81v3.65a6.396 6.396 0 0 1-1.13 3.62c-.24.36-.52.69-.83.99s-.65.57-1.01.81-.75.44-1.15.6c-.41.16-.82.29-1.25.37-.43.09-.87.13-1.31.13H16.4c-.93 0-1.78.27-2.54.81l-3.95 2.82c-.24.17-.51.26-.8.26"/><path fill="currentColor" d="M24.68 5.145h-6.493a1.153 1.153 0 0 0 0 2.306h6.493a1.153 1.153 0 1 0 0-2.306"/><path fill="currentColor" d="M22.614 3.18a1.18 1.18 0 0 0-2.361 0v6.237a1.18 1.18 0 0 0 2.36 0z"/></svg>