<svg xmlns="http://www.w3.org/2000/svg" fill="none" viewBox="0 0 30 30"><defs><clipPath id="a"><path fill="#fff" fill-opacity="0" d="M0 0h30v30H0z"/></clipPath></defs><path fill="none" d="M0 0h30v30H0z"/><g fill="currentColor" clip-path="url(#a)"><rect width="5.995" height="2.002" x="17.42" y="12.316" rx="1.001" transform="rotate(137.159 17.42 12.316)"/><rect width="6.003" height="1.99" x="12.959" y="13.729" rx=".995" transform="rotate(40.853 12.96 13.729)"/><path d="m20.1 25.5-10.2.01c-.42 0-.84-.04-1.25-.12-.41-.09-.81-.21-1.2-.37s-.76-.36-1.11-.59a7.5 7.5 0 0 1-.97-.8c-.3-.3-.56-.63-.79-.98a6.6 6.6 0 0 1-.6-1.11 6.4 6.4 0 0 1-.48-2.45v-8.16a6.367 6.367 0 0 1 .48-2.45c.17-.39.36-.76.6-1.11.23-.35.49-.68.79-.98.3-.29.62-.56.97-.79q.525-.36 1.11-.6t1.2-.36c.41-.09.83-.13 1.25-.13l10.2-.01c.42 0 .84.04 1.25.12s.81.21 1.2.37.76.36 1.11.59c.34.24.67.5.96.8.3.3.57.62.8.97s.43.72.59 1.11a6.3 6.3 0 0 1 .49 2.46v8.15a6.274 6.274 0 0 1-.49 2.46c-.16.39-.36.76-.59 1.11s-.5.67-.8.97c-.29.3-.62.56-.96.8-.35.23-.72.43-1.11.59a6.4 6.4 0 0 1-2.45.5M9.9 6.6c-.29 0-.57.03-.85.09q-.405.075-.81.24c-.26.11-.51.25-.74.4q-.36.24-.66.54c-.2.2-.38.42-.53.66a4.473 4.473 0 0 0-.65 1.56c-.05.28-.08.56-.08.84v8.16c0 .28.03.56.08.84.06.28.14.55.25.81.11.27.24.52.4.75.15.24.33.46.53.66q.3.3.66.54a4.1 4.1 0 0 0 1.55.64c.28.06.56.09.85.09l10.2-.01c.28 0 .57-.04.84-.09a4.5 4.5 0 0 0 1.56-.65c.23-.16.45-.34.65-.54s.38-.42.54-.65c.16-.24.29-.49.4-.75q.165-.39.24-.81c.06-.28.09-.56.09-.85v-8.15c0-.28-.03-.57-.09-.85q-.075-.42-.24-.81c-.11-.26-.24-.51-.4-.75-.16-.23-.34-.45-.54-.65s-.42-.38-.65-.54a4.5 4.5 0 0 0-1.56-.65c-.27-.05-.56-.08-.84-.08z"/><path fill-rule="evenodd" d="M8.5 5.51h2.04l.06 18.92H8.55z"/></g></svg>