<svg xmlns="http://www.w3.org/2000/svg" fill="none" viewBox="0 0 30 30"><defs><clipPath id="a"><path fill="#fff" fill-opacity="0" d="M0 0h30v30H0z"/></clipPath></defs><path fill="none" d="M0 0h30v30H0z"/><g fill="currentColor" clip-path="url(#a)"><rect width="5.995" height="2.002" x="11.573" y="17.684" rx="1.001" transform="rotate(-42.841 11.573 17.684)"/><rect width="6.003" height="1.99" x="16.034" y="16.271" rx=".995" transform="rotate(-139.147 16.034 16.271)"/><path d="m20.09 25.48-10.2.02c-.42 0-.84-.05-1.25-.13s-.81-.2-1.2-.37c-.39-.16-.76-.36-1.11-.59s-.67-.5-.97-.8c-.29-.3-.56-.62-.79-.97s-.43-.72-.59-1.11a6.3 6.3 0 0 1-.49-2.46v-8.15a6.274 6.274 0 0 1 .49-2.46c.16-.39.36-.76.59-1.11s.5-.67.79-.97c.3-.3.62-.57.97-.8s.72-.43 1.11-.59c.39-.17.79-.29 1.2-.37s.83-.12 1.25-.12l10.2-.02c.42 0 .84.04 1.25.12.41.09.81.21 1.2.37q.585.24 1.11.6a6.1 6.1 0 0 1 1.76 1.76c.24.36.43.73.6 1.12q.24.585.36 1.2c.08.41.12.83.13 1.26v8.15c-.01.42-.05.83-.13 1.25q-.12.615-.36 1.2a6.6 6.6 0 0 1-.6 1.11c-.23.35-.49.68-.79.98-.3.29-.62.56-.97.79q-.525.36-1.11.6t-1.2.36c-.41.09-.83.13-1.25.13M9.89 6.59c-.28 0-.57.03-.84.08a4.5 4.5 0 0 0-1.56.65c-.23.16-.45.34-.65.54s-.38.42-.54.65c-.16.24-.29.49-.4.75s-.19.54-.24.81c-.06.28-.09.56-.09.85v8.15c0 .29.03.57.09.85.05.27.13.55.24.81s.24.51.4.75c.16.23.34.45.54.65s.42.38.65.54a4.5 4.5 0 0 0 1.56.65c.27.05.56.08.84.08l10.2-.01c.29 0 .57-.03.85-.09q.405-.075.81-.24c.26-.11.51-.25.74-.4q.36-.24.66-.54c.2-.21.37-.42.53-.66s.29-.48.4-.75c.11-.26.19-.53.25-.81.05-.28.08-.56.08-.84v-8.15c0-.29-.03-.57-.08-.85a4.5 4.5 0 0 0-.65-1.56c-.16-.24-.33-.46-.53-.66q-.3-.3-.66-.54c-.23-.15-.48-.29-.74-.4q-.405-.165-.81-.24c-.28-.06-.56-.09-.85-.09z"/><path fill-rule="evenodd" d="M8.49 5.5h2.04l.06 18.91H8.54z"/></g></svg>