<svg xmlns="http://www.w3.org/2000/svg" version="1.1" viewBox="0.00 0.00 834.00 629.00" width="200" height="150.83932853717027">
<path fill="currentColor" d="&#10;  M 448.58 403.74&#10;  Q 468.81 400.32 488.57 391.28&#10;  Q 542.50 366.60 571.42 314.90&#10;  Q 580.72 298.27 586.27 278.28&#10;  C 599.67 229.99 592.57 179.23 566.02 136.90&#10;  Q 549.81 111.07 525.38 91.76&#10;  A 0.95 0.93 -44.1 0 0 524.24 91.75&#10;  C 503.45 107.32 494.53 132.90 500.73 158.27&#10;  Q 502.60 165.92 511.41 182.41&#10;  Q 515.45 189.97 531.02 220.48&#10;  Q 532.90 224.17 529.46 225.95&#10;  Q 511.46 235.31 492.34 245.08&#10;  C 490.01 246.27 488.33 244.32 487.25 242.24&#10;  Q 478.34 225.07 467.16 202.94&#10;  C 445.20 159.50 449.08 106.19 476.36 66.03&#10;  Q 493.06 41.44 518.46 25.75&#10;  A 2.48 2.47 42.6 0 1 520.88 25.65&#10;  Q 573.48 52.69 606.78 101.42&#10;  C 654.16 170.74 659.33 261.75 620.45 336.38&#10;  Q 596.06 383.20 553.46 414.93&#10;  C 495.85 457.85 420.49 470.42 351.45 449.99&#10;  A 0.54 0.52 89.7 0 1 351.08 449.61&#10;  Q 350.80 448.52 351.85 447.80&#10;  Q 376.91 430.78 393.64 404.13&#10;  Q 421.74 359.35 415.95 306.19&#10;  Q 412.46 274.24 395.94 246.48&#10;  Q 389.23 235.20 387.51 231.77&#10;  C 360.34 177.58 360.00 113.14 386.32 58.38&#10;  A 0.97 0.97 0.0 0 0 385.28 57.00&#10;  C 347.41 63.44 312.26 83.42 286.27 111.82&#10;  C 258.57 142.08 242.51 181.30 240.61 222.27&#10;  Q 238.64 264.91 256.44 303.80&#10;  Q 273.80 341.77 307.88 369.05&#10;  A 0.98 0.97 -43.9 0 0 309.08 369.07&#10;  Q 334.45 349.98 335.20 318.05&#10;  Q 335.53 303.95 328.60 289.85&#10;  Q 326.96 286.52 303.07 240.16&#10;  C 301.12 236.38 303.00 235.04 306.33 233.33&#10;  Q 326.72 222.89 340.42 215.78&#10;  C 342.88 214.51 345.06 214.65 346.34 217.18&#10;  Q 354.40 233.14 360.55 244.80&#10;  Q 369.93 262.58 373.46 273.01&#10;  C 387.45 314.35 381.80 358.59 357.36 394.61&#10;  Q 340.85 418.93 316.32 434.02&#10;  C 314.69 435.02 313.40 434.78 311.70 433.88&#10;  Q 293.92 424.53 279.67 413.79&#10;  C 244.74 387.46 217.54 351.68 202.19 310.57&#10;  C 165.12 211.30 200.56 99.61 288.17 39.91&#10;  C 344.81 1.32 416.03 -9.07 481.96 10.06&#10;  Q 482.59 10.24 482.64 10.29&#10;  A 1.23 1.21 49.6 0 1 482.50 12.17&#10;  C 438.90 42.23 414.24 92.98 417.32 145.78&#10;  Q 419.51 183.26 438.83 214.98&#10;  C 463.52 255.52 471.97 302.15 464.40 349.26&#10;  Q 459.90 377.31 447.51 402.31&#10;  A 1.00 1.00 0.0 0 0 448.58 403.74&#10;  Z"/>
<path fill="currentColor" d="&#10;  M 64.58 571.37&#10;  L 44.89 572.67&#10;  A 1.31 1.31 0.0 0 1 43.51 571.61&#10;  Q 42.03 564.00 35.31 562.97&#10;  C 31.69 562.41 27.15 562.75 25.45 566.12&#10;  C 23.58 569.85 25.90 572.41 29.43 573.55&#10;  Q 32.27 574.48 46.15 578.09&#10;  C 49.31 578.92 55.21 581.46 58.46 583.78&#10;  Q 64.42 588.03 66.52 594.70&#10;  C 70.45 607.17 64.00 620.05 52.03 625.13&#10;  Q 46.05 627.66 37.78 628.02&#10;  C 28.28 628.42 18.51 627.58 11.32 622.45&#10;  C 4.96 617.92 1.53 609.30 0.93 601.66&#10;  A 0.32 0.32 0.0 0 1 1.23 601.31&#10;  L 21.89 599.94&#10;  A 0.68 0.67 81.5 0 1 22.59 600.47&#10;  C 22.99 602.18 23.24 604.46 24.13 606.14&#10;  Q 28.78 614.92 39.44 612.31&#10;  C 45.54 610.82 47.44 603.72 42.62 599.40&#10;  C 41.82 598.69 38.72 597.26 37.03 596.78&#10;  C 23.55 592.97 1.91 588.92 3.80 569.20&#10;  C 4.87 558.05 13.28 551.19 24.06 549.31&#10;  Q 31.27 548.05 38.97 548.47&#10;  C 53.54 549.26 63.32 555.70 65.12 570.72&#10;  A 0.58 0.58 0.0 0 1 64.58 571.37&#10;  Z"/>
<path fill="currentColor" d="&#10;  M 307.91 570.72&#10;  A 0.58 0.58 0.0 0 1 307.37 571.37&#10;  L 287.68 572.67&#10;  A 1.31 1.31 0.0 0 1 286.30 571.61&#10;  Q 284.82 564.00 278.10 562.97&#10;  C 274.48 562.41 269.94 562.75 268.24 566.12&#10;  C 266.37 569.85 268.69 572.41 272.22 573.55&#10;  Q 275.06 574.48 288.94 578.09&#10;  C 292.10 578.92 298.00 581.46 301.25 583.78&#10;  Q 307.20 588.03 309.30 594.70&#10;  C 313.23 607.17 306.78 620.05 294.81 625.13&#10;  Q 288.83 627.66 280.56 628.02&#10;  C 271.06 628.42 261.29 627.58 254.10 622.45&#10;  C 247.74 617.92 244.32 609.30 243.72 601.66&#10;  A 0.32 0.32 0.0 0 1 244.02 601.31&#10;  L 264.68 599.94&#10;  A 0.68 0.67 81.5 0 1 265.37 600.47&#10;  C 265.77 602.18 266.02 604.46 266.91 606.14&#10;  Q 271.56 614.92 282.22 612.31&#10;  C 288.32 610.82 290.22 603.72 285.40 599.40&#10;  C 284.60 598.69 281.50 597.26 279.81 596.78&#10;  C 266.34 592.97 244.70 588.92 246.59 569.20&#10;  C 247.66 558.05 256.07 551.19 266.85 549.31&#10;  Q 274.06 548.05 281.76 548.47&#10;  C 296.33 549.26 306.11 555.70 307.91 570.72&#10;  Z"/>
<path fill="currentColor" d="&#10;  M 230.92 548.97&#10;  L 230.92 626.57&#10;  A 0.31 0.31 0.0 0 1 230.60 626.88&#10;  L 208.24 626.42&#10;  A 0.31 0.31 0.0 0 1 207.94 626.11&#10;  L 207.94 603.00&#10;  A 0.31 0.31 0.0 0 0 207.80 602.74&#10;  L 174.53 581.60&#10;  A 0.31 0.31 0.0 0 0 174.05 581.86&#10;  L 174.05 625.71&#10;  A 0.31 0.31 0.0 0 1 173.74 626.02&#10;  L 153.62 626.02&#10;  A 0.31 0.31 0.0 0 1 153.31 625.71&#10;  L 153.31 548.96&#10;  A 0.31 0.31 0.0 0 1 153.62 548.65&#10;  L 164.36 548.65&#10;  A 0.31 0.31 0.0 0 1 164.54 548.71&#10;  L 208.66 580.00&#10;  A 0.31 0.31 0.0 0 0 209.15 579.76&#10;  L 209.79 548.96&#10;  A 0.31 0.31 0.0 0 1 210.10 548.66&#10;  L 230.61 548.66&#10;  A 0.31 0.31 0.0 0 1 230.92 548.97&#10;  Z"/>
<path fill="currentColor" d="&#10;  M 665.82 625.48&#10;  A 0.37 0.36 -16.2 0 1 665.51 626.04&#10;  L 640.02 626.04&#10;  A 1.26 1.25 77.3 0 1 638.89 625.32&#10;  Q 635.05 617.10 630.55 611.04&#10;  C 629.30 609.35 627.20 608.00 624.57 608.08&#10;  Q 623.76 608.10 612.41 607.90&#10;  A 0.54 0.54 0.0 0 0 611.86 608.44&#10;  L 611.86 625.96&#10;  A 0.56 0.55 0.5 0 1 611.29 626.51&#10;  L 591.05 626.09&#10;  A 0.74 0.74 0.0 0 1 590.33 625.35&#10;  L 590.34 549.15&#10;  A 0.46 0.46 0.0 0 1 590.80 548.69&#10;  Q 614.62 548.62 631.03 548.73&#10;  Q 640.36 548.79 646.77 550.65&#10;  C 655.93 553.31 661.96 565.10 662.18 574.24&#10;  C 662.39 583.11 659.68 592.23 653.36 598.63&#10;  Q 650.17 601.85 647.09 603.20&#10;  A 0.40 0.40 0.0 0 0 646.99 603.87&#10;  Q 657.92 613.20 665.82 625.48&#10;  Z&#10;  M 612.15 564.68&#10;  L 612.15 589.99&#10;  A 0.34 0.34 0.0 0 0 612.47 590.33&#10;  Q 618.10 590.60 626.53 590.22&#10;  Q 632.03 589.97 636.20 586.94&#10;  Q 640.34 583.93 640.62 577.37&#10;  C 640.80 573.25 639.58 567.83 635.60 565.98&#10;  Q 632.04 564.34 630.05 564.20&#10;  Q 623.69 563.74 612.86 563.94&#10;  A 0.74 0.73 89.2 0 0 612.15 564.68&#10;  Z"/>
<path fill="currentColor" d="&#10;  M 136.35 549.10&#10;  A 0.68 0.68 0.0 0 1 137.03 549.78&#10;  L 137.01 565.23&#10;  A 0.42 0.41 -89.3 0 1 136.60 565.64&#10;  L 100.19 565.64&#10;  A 0.64 0.63 90.0 0 0 99.56 566.28&#10;  L 99.56 577.47&#10;  A 0.48 0.48 0.0 0 0 100.04 577.95&#10;  L 136.81 577.88&#10;  A 0.59 0.58 89.0 0 1 137.40 578.46&#10;  L 137.64 593.27&#10;  A 0.45 0.45 0.0 0 1 137.19 593.72&#10;  L 100.18 593.72&#10;  A 0.62 0.62 0.0 0 0 99.56 594.34&#10;  L 99.56 608.59&#10;  A 0.37 0.36 -0.0 0 0 99.93 608.95&#10;  L 137.73 608.96&#10;  A 0.39 0.39 0.0 0 1 138.12 609.35&#10;  L 138.12 626.06&#10;  A 0.40 0.40 0.0 0 1 137.72 626.46&#10;  L 77.57 626.46&#10;  A 0.48 0.48 0.0 0 1 77.09 625.98&#10;  L 77.09 549.48&#10;  A 0.37 0.37 0.0 0 1 77.46 549.11&#10;  L 136.35 549.10&#10;  Z"/>
<path fill="currentColor" d="&#10;  M 708.03 549.13&#10;  L 723.05 549.45&#10;  A 0.32 0.32 0.0 0 1 723.33 549.63&#10;  L 758.21 626.43&#10;  A 0.32 0.32 0.0 0 1 757.91 626.88&#10;  L 735.88 626.42&#10;  A 0.32 0.32 0.0 0 1 735.59 626.21&#10;  L 731.49 614.38&#10;  A 0.32 0.32 0.0 0 0 731.20 614.17&#10;  L 700.71 613.53&#10;  A 0.32 0.32 0.0 0 0 700.41 613.73&#10;  L 694.78 626.66&#10;  A 0.32 0.32 0.0 0 1 694.48 626.86&#10;  L 674.60 626.44&#10;  A 0.32 0.32 0.0 0 1 674.31 625.99&#10;  L 707.73 549.33&#10;  A 0.32 0.32 0.0 0 1 708.03 549.13&#10;  Z&#10;  M 708.05 597.00&#10;  A 0.32 0.32 0.0 0 0 708.34 597.45&#10;  L 724.28 597.45&#10;  A 0.32 0.32 0.0 0 0 724.57 597.00&#10;  L 716.60 578.94&#10;  A 0.32 0.32 0.0 0 0 716.02 578.94&#10;  L 708.05 597.00&#10;  Z"/>
<path fill="currentColor" d="&#10;  M 579.01 626.81&#10;  L 553.51 626.81&#10;  A 1.26 1.25 77.3 0 1 552.38 626.09&#10;  Q 548.54 617.87 544.03 611.81&#10;  C 542.78 610.12 540.68 608.77 538.05 608.85&#10;  Q 537.24 608.87 525.89 608.67&#10;  A 0.54 0.54 0.0 0 0 525.34 609.21&#10;  L 525.34 626.74&#10;  A 0.56 0.55 0.5 0 1 524.77 627.29&#10;  L 504.52 626.87&#10;  A 0.74 0.74 0.0 0 1 503.80 626.13&#10;  L 503.80 549.90&#10;  A 0.46 0.46 0.0 0 1 504.26 549.44&#10;  Q 528.09 549.37 544.50 549.48&#10;  Q 553.84 549.54 560.25 551.40&#10;  C 569.41 554.05 575.45 565.85 575.67 574.99&#10;  C 575.88 583.86 573.17 592.99 566.85 599.39&#10;  Q 563.66 602.61 560.58 603.96&#10;  A 0.40 0.40 0.0 0 0 560.48 604.63&#10;  Q 571.41 613.96 579.32 626.25&#10;  A 0.37 0.36 -16.2 0 1 579.01 626.81&#10;  Z&#10;  M 525.62 565.42&#10;  L 525.62 590.74&#10;  A 0.34 0.34 0.0 0 0 525.94 591.08&#10;  Q 531.57 591.35 540.00 590.97&#10;  Q 545.50 590.72 549.67 587.69&#10;  Q 553.82 584.68 554.10 578.12&#10;  C 554.28 574.00 553.06 568.57 549.07 566.72&#10;  Q 545.51 565.08 543.52 564.94&#10;  Q 537.16 564.48 526.33 564.68&#10;  A 0.74 0.73 89.2 0 0 525.62 565.42&#10;  Z"/>
<path fill="currentColor" d="&#10;  M 801.63 599.32&#10;  L 801.63 626.60&#10;  A 0.31 0.31 0.0 0 1 801.32 626.91&#10;  L 779.46 626.91&#10;  A 0.31 0.31 0.0 0 1 779.15 626.60&#10;  L 779.15 599.74&#10;  A 0.31 0.31 0.0 0 0 779.11 599.58&#10;  L 749.29 550.04&#10;  A 0.31 0.31 0.0 0 1 749.56 549.57&#10;  L 772.04 549.57&#10;  A 0.31 0.31 0.0 0 1 772.31 549.72&#10;  L 790.53 579.99&#10;  A 0.31 0.31 0.0 0 0 791.06 579.98&#10;  L 808.54 549.72&#10;  A 0.31 0.31 0.0 0 1 808.81 549.57&#10;  L 832.61 549.57&#10;  A 0.31 0.31 0.0 0 1 832.87 550.05&#10;  L 801.68 599.15&#10;  A 0.31 0.31 0.0 0 0 801.63 599.32&#10;  Z"/>
<path fill="currentColor" d="&#10;  M 409.40 627.18&#10;  A 0.52 0.51 -78.3 0 1 408.93 626.46&#10;  L 442.06 550.47&#10;  A 1.04 1.03 -78.3 0 1 443.01 549.84&#10;  L 457.20 549.84&#10;  A 0.86 0.86 0.0 0 1 457.98 550.34&#10;  L 492.72 626.83&#10;  A 0.23 0.23 0.0 0 1 492.51 627.16&#10;  L 470.89 627.17&#10;  A 0.84 0.83 79.9 0 1 470.11 626.62&#10;  L 466.09 614.97&#10;  A 0.70 0.70 0.0 0 0 465.44 614.50&#10;  L 435.28 614.24&#10;  A 0.77 0.76 10.8 0 0 434.55 614.73&#10;  L 429.85 626.61&#10;  A 0.86 0.85 10.4 0 1 429.05 627.16&#10;  L 409.40 627.18&#10;  Z&#10;  M 442.61 597.59&#10;  A 0.32 0.32 0.0 0 0 442.90 598.04&#10;  L 458.86 598.04&#10;  A 0.32 0.32 0.0 0 0 459.15 597.59&#10;  L 451.17 579.50&#10;  A 0.32 0.32 0.0 0 0 450.59 579.50&#10;  L 442.61 597.59&#10;  Z"/>
<path fill="currentColor" d="&#10;  M 378.42 566.56&#10;  L 341.79 566.56&#10;  A 0.42 0.42 0.0 0 0 341.37 566.98&#10;  L 341.37 578.41&#10;  A 0.42 0.42 0.0 0 0 341.79 578.83&#10;  L 378.91 578.83&#10;  A 0.42 0.42 0.0 0 1 379.33 579.25&#10;  L 379.33 594.22&#10;  A 0.42 0.42 0.0 0 1 378.91 594.64&#10;  L 341.79 594.64&#10;  A 0.42 0.42 0.0 0 0 341.37 595.06&#10;  L 341.37 609.45&#10;  A 0.42 0.42 0.0 0 0 341.79 609.87&#10;  L 379.51 609.87&#10;  A 0.42 0.42 0.0 0 1 379.93 610.29&#10;  L 379.93 626.95&#10;  A 0.42 0.42 0.0 0 1 379.51 627.37&#10;  L 319.31 627.37&#10;  A 0.42 0.42 0.0 0 1 318.89 626.95&#10;  L 318.89 550.44&#10;  A 0.42 0.42 0.0 0 1 319.31 550.02&#10;  L 378.42 550.02&#10;  A 0.42 0.42 0.0 0 1 378.84 550.44&#10;  L 378.84 566.14&#10;  A 0.42 0.42 0.0 0 1 378.42 566.56&#10;  Z"/>
</svg>
