<svg xmlns="http://www.w3.org/2000/svg" version="1.1" viewBox="184.5 -2.69 464 465" width="464" height="465" xmlns:xlink="http://www.w3.org/1999/xlink"><path fill="currentColor" d="M448.58 403.74Q468.81 400.32 488.57 391.28 542.5 366.6 571.42 314.9 580.72 298.27 586.27 278.28C599.67 229.99 592.57 179.23 566.02 136.9Q549.81 111.07 525.38 91.76A.95.93-44.1 0 0 524.24 91.75C503.45 107.32 494.53 132.9 500.73 158.27Q502.6 165.92 511.41 182.41 515.45 189.97 531.02 220.48 532.9 224.17 529.46 225.95 511.46 235.31 492.34 245.08C490.01 246.27 488.33 244.32 487.25 242.24Q478.34 225.07 467.16 202.94C445.2 159.5 449.08 106.19 476.36 66.03Q493.06 41.44 518.46 25.75A2.48 2.47 42.6 0 1 520.88 25.65Q573.48 52.69 606.78 101.42C654.16 170.74 659.33 261.75 620.45 336.38Q596.06 383.2 553.46 414.93C495.85 457.85 420.49 470.42 351.45 449.99A.54.52 89.7 0 1 351.08 449.61Q350.8 448.52 351.85 447.8 376.91 430.78 393.64 404.13 421.74 359.35 415.95 306.19 412.46 274.24 395.94 246.48 389.23 235.2 387.51 231.77C360.34 177.58 360 113.14 386.32 58.38A.97.97 0 0 0 385.28 57C347.41 63.44 312.26 83.42 286.27 111.82 258.57 142.08 242.51 181.3 240.61 222.27Q238.64 264.91 256.44 303.8 273.8 341.77 307.88 369.05A.98.97-43.9 0 0 309.08 369.07Q334.45 349.98 335.2 318.05 335.53 303.95 328.6 289.85 326.96 286.52 303.07 240.16C301.12 236.38 303 235.04 306.33 233.33Q326.72 222.89 340.42 215.78C342.88 214.51 345.06 214.65 346.34 217.18Q354.4 233.14 360.55 244.8 369.93 262.58 373.46 273.01C387.45 314.35 381.8 358.59 357.36 394.61Q340.85 418.93 316.32 434.02C314.69 435.02 313.4 434.78 311.7 433.88Q293.92 424.53 279.67 413.79C244.74 387.46 217.54 351.68 202.19 310.57 165.12 211.3 200.56 99.61 288.17 39.91 344.81 1.32 416.03-9.07 481.96 10.06Q482.59 10.24 482.64 10.29A1.23 1.21 49.6 0 1 482.5 12.17C438.9 42.23 414.24 92.98 417.32 145.78Q419.51 183.26 438.83 214.98C463.52 255.52 471.97 302.15 464.4 349.26Q459.9 377.31 447.51 402.31A1 1 0 0 0 448.58 403.74ZM64.58 571.37 44.89 572.67A1.31 1.31 0 0 1 43.51 571.61Q42.03 564 35.31 562.97C31.69 562.41 27.15 562.75 25.45 566.12 23.58 569.85 25.9 572.41 29.43 573.55Q32.27 574.48 46.15 578.09C49.31 578.92 55.21 581.46 58.46 583.78Q64.42 588.03 66.52 594.7C70.45 607.17 64 620.05 52.03 625.13Q46.05 627.66 37.78 628.02C28.28 628.42 18.51 627.58 11.32 622.45 4.96 617.92 1.53 609.3.93 601.66A.32.32 0 0 1 1.23 601.31L21.89 599.94A.68.67 81.5 0 1 22.59 600.47C22.99 602.18 23.24 604.46 24.13 606.14Q28.78 614.92 39.44 612.31C45.54 610.82 47.44 603.72 42.62 599.4 41.82 598.69 38.72 597.26 37.03 596.78 23.55 592.97 1.91 588.92 3.8 569.2 4.87 558.05 13.28 551.19 24.06 549.31Q31.27 548.05 38.97 548.47C53.54 549.26 63.32 555.7 65.12 570.72A.58.58 0 0 1 64.58 571.37ZM307.91 570.72A.58.58 0 0 1 307.37 571.37L287.68 572.67A1.31 1.31 0 0 1 286.3 571.61Q284.82 564 278.1 562.97C274.48 562.41 269.94 562.75 268.24 566.12 266.37 569.85 268.69 572.41 272.22 573.55Q275.06 574.48 288.94 578.09C292.1 578.92 298 581.46 301.25 583.78Q307.2 588.03 309.3 594.7C313.23 607.17 306.78 620.05 294.81 625.13Q288.83 627.66 280.56 628.02C271.06 628.42 261.29 627.58 254.1 622.45 247.74 617.92 244.32 609.3 243.72 601.66A.32.32 0 0 1 244.02 601.31L264.68 599.94A.68.67 81.5 0 1 265.37 600.47C265.77 602.18 266.02 604.46 266.91 606.14Q271.56 614.92 282.22 612.31C288.32 610.82 290.22 603.72 285.4 599.4 284.6 598.69 281.5 597.26 279.81 596.78 266.34 592.97 244.7 588.92 246.59 569.2 247.66 558.05 256.07 551.19 266.85 549.31Q274.06 548.05 281.76 548.47C296.33 549.26 306.11 555.7 307.91 570.72ZM230.92 548.97 230.92 626.57A.31.31 0 0 1 230.6 626.88L208.24 626.42A.31.31 0 0 1 207.94 626.11L207.94 603A.31.31 0 0 0 207.8 602.74L174.53 581.6A.31.31 0 0 0 174.05 581.86L174.05 625.71A.31.31 0 0 1 173.74 626.02L153.62 626.02A.31.31 0 0 1 153.31 625.71L153.31 548.96A.31.31 0 0 1 153.62 548.65L164.36 548.65A.31.31 0 0 1 164.54 548.71L208.66 580A.31.31 0 0 0 209.15 579.76L209.79 548.96A.31.31 0 0 1 210.1 548.66L230.61 548.66A.31.31 0 0 1 230.92 548.97ZM665.82 625.48A.37.36-16.2 0 1 665.51 626.04L640.02 626.04A1.26 1.25 77.3 0 1 638.89 625.32Q635.05 617.1 630.55 611.04C629.3 609.35 627.2 608 624.57 608.08Q623.76 608.1 612.41 607.9A.54.54 0 0 0 611.86 608.44L611.86 625.96A.56.55.5 0 1 611.29 626.51L591.05 626.09A.74.74 0 0 1 590.33 625.35L590.34 549.15A.46.46 0 0 1 590.8 548.69Q614.62 548.62 631.03 548.73 640.36 548.79 646.77 550.65C655.93 553.31 661.96 565.1 662.18 574.24 662.39 583.11 659.68 592.23 653.36 598.63Q650.17 601.85 647.09 603.2A.4.4 0 0 0 646.99 603.87Q657.92 613.2 665.82 625.48ZM612.15 564.68 612.15 589.99A.34.34 0 0 0 612.47 590.33Q618.1 590.6 626.53 590.22 632.03 589.97 636.2 586.94 640.34 583.93 640.62 577.37C640.8 573.25 639.58 567.83 635.6 565.98Q632.04 564.34 630.05 564.2 623.69 563.74 612.86 563.94A.74.73 89.2 0 0 612.15 564.68ZM136.35 549.1A.68.68 0 0 1 137.03 549.78L137.01 565.23A.42.41-89.3 0 1 136.6 565.64L100.19 565.64A.64.63 90 0 0 99.56 566.28L99.56 577.47A.48.48 0 0 0 100.04 577.95L136.81 577.88A.59.58 89 0 1 137.4 578.46L137.64 593.27A.45.45 0 0 1 137.19 593.72L100.18 593.72A.62.62 0 0 0 99.56 594.34L99.56 608.59A.37.36 0 0 0 99.93 608.95L137.73 608.96A.39.39 0 0 1 138.12 609.35L138.12 626.06A.4.4 0 0 1 137.72 626.46L77.57 626.46A.48.48 0 0 1 77.09 625.98L77.09 549.48A.37.37 0 0 1 77.46 549.11L136.35 549.1ZM708.03 549.13 723.05 549.45A.32.32 0 0 1 723.33 549.63L758.21 626.43A.32.32 0 0 1 757.91 626.88L735.88 626.42A.32.32 0 0 1 735.59 626.21L731.49 614.38A.32.32 0 0 0 731.2 614.17L700.71 613.53A.32.32 0 0 0 700.41 613.73L694.78 626.66A.32.32 0 0 1 694.48 626.86L674.6 626.44A.32.32 0 0 1 674.31 625.99L707.73 549.33A.32.32 0 0 1 708.03 549.13ZM708.05 597A.32.32 0 0 0 708.34 597.45L724.28 597.45A.32.32 0 0 0 724.57 597L716.6 578.94A.32.32 0 0 0 716.02 578.94L708.05 597ZM579.01 626.81 553.51 626.81A1.26 1.25 77.3 0 1 552.38 626.09Q548.54 617.87 544.03 611.81C542.78 610.12 540.68 608.77 538.05 608.85Q537.24 608.87 525.89 608.67A.54.54 0 0 0 525.34 609.21L525.34 626.74A.56.55.5 0 1 524.77 627.29L504.52 626.87A.74.74 0 0 1 503.8 626.13L503.8 549.9A.46.46 0 0 1 504.26 549.44Q528.09 549.37 544.5 549.48 553.84 549.54 560.25 551.4C569.41 554.05 575.45 565.85 575.67 574.99 575.88 583.86 573.17 592.99 566.85 599.39Q563.66 602.61 560.58 603.96A.4.4 0 0 0 560.48 604.63Q571.41 613.96 579.32 626.25A.37.36-16.2 0 1 579.01 626.81ZM525.62 565.42 525.62 590.74A.34.34 0 0 0 525.94 591.08Q531.57 591.35 540 590.97 545.5 590.72 549.67 587.69 553.82 584.68 554.1 578.12C554.28 574 553.06 568.57 549.07 566.72Q545.51 565.08 543.52 564.94 537.16 564.48 526.33 564.68A.74.73 89.2 0 0 525.62 565.42ZM801.63 599.32 801.63 626.6A.31.31 0 0 1 801.32 626.91L779.46 626.91A.31.31 0 0 1 779.15 626.6L779.15 599.74A.31.31 0 0 0 779.11 599.58L749.29 550.04A.31.31 0 0 1 749.56 549.57L772.04 549.57A.31.31 0 0 1 772.31 549.72L790.53 579.99A.31.31 0 0 0 791.06 579.98L808.54 549.72A.31.31 0 0 1 808.81 549.57L832.61 549.57A.31.31 0 0 1 832.87 550.05L801.68 599.15A.31.31 0 0 0 801.63 599.32ZM409.4 627.18A.52.51-78.3 0 1 408.93 626.46L442.06 550.47A1.04 1.03-78.3 0 1 443.01 549.84L457.2 549.84A.86.86 0 0 1 457.98 550.34L492.72 626.83A.23.23 0 0 1 492.51 627.16L470.89 627.17A.84.83 79.9 0 1 470.11 626.62L466.09 614.97A.7.7 0 0 0 465.44 614.5L435.28 614.24A.77.76 10.8 0 0 434.55 614.73L429.85 626.61A.86.85 10.4 0 1 429.05 627.16L409.4 627.18ZM442.61 597.59A.32.32 0 0 0 442.9 598.04L458.86 598.04A.32.32 0 0 0 459.15 597.59L451.17 579.5A.32.32 0 0 0 450.59 579.5L442.61 597.59ZM378.42 566.56 341.79 566.56A.42.42 0 0 0 341.37 566.98L341.37 578.41A.42.42 0 0 0 341.79 578.83L378.91 578.83A.42.42 0 0 1 379.33 579.25L379.33 594.22A.42.42 0 0 1 378.91 594.64L341.79 594.64A.42.42 0 0 0 341.37 595.06L341.37 609.45A.42.42 0 0 0 341.79 609.87L379.51 609.87A.42.42 0 0 1 379.93 610.29L379.93 626.95A.42.42 0 0 1 379.51 627.37L319.31 627.37A.42.42 0 0 1 318.89 626.95L318.89 550.44A.42.42 0 0 1 319.31 550.02L378.42 550.02A.42.42 0 0 1 378.84 550.44L378.84 566.14A.42.42 0 0 1 378.42 566.56Z" data-c-fill="0" fill-opacity="1"/></svg>
